<svg width="1728" height="1011" viewBox="0 0 1728 1011" fill="none" xmlns="http://www.w3.org/2000/svg">
<g clip-path="url(#clip0_10_37208)">
<rect width="1728" height="1011" fill="#1E2633"/>
<path d="M-139.999 0.135742L1846 0.135742" stroke="#01F77E" stroke-opacity="0.7"/>
<path d="M-139.999 102.226L1846 102.226" stroke="#01F77E" stroke-opacity="0.7"/>
<path d="M-139.999 204.317L1846 204.317" stroke="#01F77E" stroke-opacity="0.7"/>
<path d="M-139.999 306.407L1846 306.407" stroke="#01F77E" stroke-opacity="0.7"/>
<path d="M-139.999 408.498L1846 408.498" stroke="#01F77E" stroke-opacity="0.7"/>
<path d="M-139.999 510.588L1846 510.588" stroke="#01F77E" stroke-opacity="0.7"/>
<path d="M-139.999 612.679L1846 612.679" stroke="#01F77E" stroke-opacity="0.7"/>
<path d="M-139.999 714.769L1846 714.769" stroke="#01F77E" stroke-opacity="0.7"/>
<path d="M-139.999 816.86L1846 816.86" stroke="#01F77E" stroke-opacity="0.7"/>
<path d="M-139.999 918.95L1846 918.95" stroke="#01F77E" stroke-opacity="0.7"/>
<path d="M36 -148V1041" stroke="#01F77E" stroke-opacity="0.5"/>
<path d="M105 -148V1041" stroke="#01F77E" stroke-opacity="0.5"/>
<path d="M175 -148V1041" stroke="#01F77E" stroke-opacity="0.5"/>
<path d="M245 -148V1041" stroke="#01F77E" stroke-opacity="0.5"/>
<path d="M314 -148V1041" stroke="#01F77E" stroke-opacity="0.5"/>
<path d="M384 -148V1041" stroke="#01F77E" stroke-opacity="0.5"/>
<path d="M453 -148V1041" stroke="#01F77E" stroke-opacity="0.5"/>
<path d="M522 -148V1041" stroke="#01F77E" stroke-opacity="0.5"/>
<path d="M592 -148V1041" stroke="#01F77E" stroke-opacity="0.5"/>
<path d="M661 -148V1041" stroke="#01F77E" stroke-opacity="0.5"/>
<path d="M730 -148V1041" stroke="#01F77E" stroke-opacity="0.5"/>
<path d="M800 -148V1041" stroke="#01F77E" stroke-opacity="0.5"/>
<path d="M869 -148V1041" stroke="#01F77E" stroke-opacity="0.5"/>
<path d="M938 -148V1041" stroke="#01F77E" stroke-opacity="0.5"/>
<path d="M1008 -148V1041" stroke="#01F77E" stroke-opacity="0.5"/>
<path d="M1077 -148V1041" stroke="#01F77E" stroke-opacity="0.5"/>
<path d="M1146 -148V1041" stroke="#01F77E" stroke-opacity="0.5"/>
<path d="M1214 -148V1041" stroke="#01F77E" stroke-opacity="0.5"/>
<path d="M1284 -148V1041" stroke="#01F77E" stroke-opacity="0.5"/>
<path d="M1354 -148V1041" stroke="#01F77E" stroke-opacity="0.5"/>
<path d="M1423 -148V1041" stroke="#01F77E" stroke-opacity="0.5"/>
<path d="M1493 -148V1041" stroke="#01F77E" stroke-opacity="0.5"/>
<path d="M1563 -148V1041" stroke="#01F77E" stroke-opacity="0.5"/>
<path d="M1632 -148V1041" stroke="#01F77E" stroke-opacity="0.5"/>
<path d="M1702 -148V1041" stroke="#01F77E" stroke-opacity="0.5"/>
</g>
<defs>
<clipPath id="clip0_10_37208">
<rect width="1728" height="1011" fill="white"/>
</clipPath>
</defs>
</svg>
